<svg xmlns="http://www.w3.org/2000/svg" width="141" height="141" viewBox="0 0 141 141"><defs><style>.a{fill:none;}.b{fill:#c1531b;}.c,.d{stroke:none;}.d{fill:#c1531b;}</style></defs><g transform="translate(-900 -899)"><g class="a" transform="translate(900 899)"><path class="c" d="M70.5,0A70.5,70.5,0,1,1,0,70.5,70.5,70.5,0,0,1,70.5,0Z"/><path class="d" d="M 70.5 12 C 38.24299621582031 12 12 38.24299621582031 12 70.5 C 12 102.7570037841797 38.24299621582031 129 70.5 129 C 102.7570037841797 129 129 102.7570037841797 129 70.5 C 129 38.24299621582031 102.7570037841797 12 70.5 12 M 70.5 0 C 109.4360580444336 0 141 31.56391143798828 141 70.5 C 141 109.4360580444336 109.4360580444336 141 70.5 141 C 31.56391143798828 141 0 109.4360580444336 0 70.5 C 0 31.56391143798828 31.56391143798828 0 70.5 0 Z"/></g><circle class="b" cx="46.5" cy="46.5" r="46.5" transform="translate(924 923)"/></g></svg>